<svg width="544" height="544" viewBox="0 0 544 544" fill="none" xmlns="http://www.w3.org/2000/svg">
<circle cx="272" cy="272" r="272" fill="#1D2A53"/>
<path d="M266.112 175.006C262.121 153.261 272.409 130.883 284.798 115.803C298.453 99.163 321.886 86.4023 341.911 85C345.293 107.798 335.984 130.01 323.73 145.722C310.584 162.601 287.983 175.69 266.112 175.006ZM383.572 253.799C389.768 236.521 402.044 220.977 421.087 210.488C401.843 186.488 374.823 172.554 349.326 172.554C315.59 172.554 301.327 188.617 277.895 188.617C253.757 188.617 235.445 172.554 206.224 172.554C177.569 172.554 147.068 190.008 127.724 219.818C120.612 230.837 115.794 244.525 113.166 259.772C105.875 302.544 116.766 358.254 149.255 407.721C165.052 431.725 186.107 458.762 213.614 458.997C238.117 459.237 245.068 443.341 278.24 443.177C311.46 442.988 317.756 459.162 342.226 458.929C369.74 458.697 391.956 428.775 407.752 404.775C419 387.552 423.254 378.852 432 359.38C387.527 342.619 369.236 293.643 383.572 253.799Z" fill="white"/>
</svg>
